<?xml version="1.0" encoding="UTF-8"?>
<svg xmlns="http://www.w3.org/2000/svg" version="1.1" width="512" height="512" viewBox="0 0 512 512"><rect x="0" y="0" width="512" height="512" fill="#ffffff"/><g transform="scale(12.488)"><g transform="translate(0,0)"><path fill-rule="evenodd" d="M8 0L8 1L9 1L9 0ZM11 0L11 1L10 1L10 2L11 2L11 4L9 4L9 2L8 2L8 5L10 5L10 8L8 8L8 9L7 9L7 8L6 8L6 9L7 9L7 10L6 10L6 11L7 11L7 12L6 12L6 13L7 13L7 14L6 14L6 15L8 15L8 16L9 16L9 17L10 17L10 18L8 18L8 20L6 20L6 19L7 19L7 18L6 18L6 19L5 19L5 20L4 20L4 19L3 19L3 20L4 20L4 21L2 21L2 24L1 24L1 20L2 20L2 19L0 19L0 24L1 24L1 25L5 25L5 27L4 27L4 26L2 26L2 27L4 27L4 28L3 28L3 29L5 29L5 30L4 30L4 31L3 31L3 30L2 30L2 31L3 31L3 32L1 32L1 33L8 33L8 34L9 34L9 33L10 33L10 32L11 32L11 34L10 34L10 35L9 35L9 37L8 37L8 41L9 41L9 37L10 37L10 35L11 35L11 38L12 38L12 40L11 40L11 39L10 39L10 41L12 41L12 40L13 40L13 41L15 41L15 40L16 40L16 39L14 39L14 40L13 40L13 38L12 38L12 36L13 36L13 35L14 35L14 34L15 34L15 33L16 33L16 36L14 36L14 38L15 38L15 37L17 37L17 36L18 36L18 35L19 35L19 34L20 34L20 36L19 36L19 38L17 38L17 39L20 39L20 36L21 36L21 35L22 35L22 38L21 38L21 40L20 40L20 41L22 41L22 40L23 40L23 37L24 37L24 40L25 40L25 41L27 41L27 40L29 40L29 39L30 39L30 38L31 38L31 39L33 39L33 38L34 38L34 37L35 37L35 38L37 38L37 36L38 36L38 38L39 38L39 41L40 41L40 39L41 39L41 35L40 35L40 34L41 34L41 32L40 32L40 31L36 31L36 32L34 32L34 31L35 31L35 30L34 30L34 31L33 31L33 29L32 29L32 33L31 33L31 35L32 35L32 37L30 37L30 36L29 36L29 37L27 37L27 36L28 36L28 35L26 35L26 34L27 34L27 33L25 33L25 35L24 35L24 33L22 33L22 32L23 32L23 30L24 30L24 31L25 31L25 29L27 29L27 30L26 30L26 31L27 31L27 32L28 32L28 34L29 34L29 35L30 35L30 34L29 34L29 33L30 33L30 32L31 32L31 28L32 28L32 25L30 25L30 24L28 24L28 25L26 25L26 23L25 23L25 22L24 22L24 21L27 21L27 19L28 19L28 22L30 22L30 23L31 23L31 22L32 22L32 23L34 23L34 24L33 24L33 25L34 25L34 26L33 26L33 28L34 28L34 27L35 27L35 29L38 29L38 30L39 30L39 29L38 29L38 28L36 28L36 27L37 27L37 26L35 26L35 25L34 25L34 24L37 24L37 23L38 23L38 21L40 21L40 22L39 22L39 23L40 23L40 24L38 24L38 27L41 27L41 23L40 23L40 22L41 22L41 21L40 21L40 20L41 20L41 19L40 19L40 20L39 20L39 19L37 19L37 18L38 18L38 15L39 15L39 17L40 17L40 15L41 15L41 12L40 12L40 13L39 13L39 12L37 12L37 14L38 14L38 15L37 15L37 16L36 16L36 15L35 15L35 13L33 13L33 14L32 14L32 12L35 12L35 11L33 11L33 9L34 9L34 10L38 10L38 11L40 11L40 10L41 10L41 8L40 8L40 9L39 9L39 8L36 8L36 9L34 9L34 8L33 8L33 9L31 9L31 8L30 8L30 7L31 7L31 6L32 6L32 7L33 7L33 6L32 6L32 4L31 4L31 5L29 5L29 6L28 6L28 7L27 7L27 5L28 5L28 2L30 2L30 3L29 3L29 4L30 4L30 3L32 3L32 2L30 2L30 1L33 1L33 0L30 0L30 1L29 1L29 0L28 0L28 2L26 2L26 0L25 0L25 3L24 3L24 0L23 0L23 3L22 3L22 4L21 4L21 2L22 2L22 0L21 0L21 2L20 2L20 3L19 3L19 4L20 4L20 5L17 5L17 6L16 6L16 7L17 7L17 8L16 8L16 9L17 9L17 8L18 8L18 9L19 9L19 10L20 10L20 8L21 8L21 10L22 10L22 11L25 11L25 12L24 12L24 15L23 15L23 16L22 16L22 14L23 14L23 12L22 12L22 13L21 13L21 15L19 15L19 13L20 13L20 12L21 12L21 11L18 11L18 10L16 10L16 11L15 11L15 8L14 8L14 11L13 11L13 12L12 12L12 11L10 11L10 12L9 12L9 14L8 14L8 13L7 13L7 12L8 12L8 11L9 11L9 10L8 10L8 9L10 9L10 8L11 8L11 10L13 10L13 9L12 9L12 8L13 8L13 6L14 6L14 7L15 7L15 3L16 3L16 4L17 4L17 3L18 3L18 2L19 2L19 1L20 1L20 0L13 0L13 1L12 1L12 0ZM11 1L11 2L12 2L12 1ZM14 1L14 2L13 2L13 3L12 3L12 4L13 4L13 5L11 5L11 7L12 7L12 6L13 6L13 5L14 5L14 3L15 3L15 2L16 2L16 3L17 3L17 2L18 2L18 1L17 1L17 2L16 2L16 1ZM25 3L25 5L23 5L23 4L22 4L22 6L21 6L21 8L22 8L22 10L23 10L23 8L22 8L22 6L23 6L23 7L24 7L24 8L25 8L25 9L24 9L24 10L25 10L25 11L26 11L26 12L25 12L25 16L24 16L24 17L25 17L25 16L26 16L26 17L27 17L27 16L26 16L26 15L28 15L28 17L29 17L29 19L30 19L30 21L31 21L31 20L32 20L32 21L33 21L33 22L34 22L34 23L36 23L36 22L34 22L34 21L33 21L33 19L32 19L32 15L31 15L31 16L30 16L30 14L31 14L31 11L32 11L32 10L31 10L31 11L30 11L30 10L29 10L29 11L28 11L28 9L29 9L29 7L30 7L30 6L29 6L29 7L28 7L28 8L27 8L27 7L26 7L26 6L25 6L25 5L27 5L27 4L26 4L26 3ZM8 6L8 7L9 7L9 6ZM17 6L17 7L18 7L18 6ZM19 6L19 8L20 8L20 6ZM24 6L24 7L25 7L25 6ZM0 8L0 9L2 9L2 10L3 10L3 11L2 11L2 12L0 12L0 15L1 15L1 16L0 16L0 17L1 17L1 18L2 18L2 17L5 17L5 15L4 15L4 14L5 14L5 13L4 13L4 12L5 12L5 11L4 11L4 10L3 10L3 9L4 9L4 8ZM26 8L26 11L27 11L27 8ZM38 9L38 10L39 10L39 9ZM0 10L0 11L1 11L1 10ZM16 11L16 12L13 12L13 14L12 14L12 16L11 16L11 15L9 15L9 16L10 16L10 17L13 17L13 18L15 18L15 16L16 16L16 17L18 17L18 16L19 16L19 15L18 15L18 14L17 14L17 16L16 16L16 15L15 15L15 14L16 14L16 13L18 13L18 11ZM2 12L2 13L1 13L1 15L2 15L2 16L1 16L1 17L2 17L2 16L3 16L3 15L2 15L2 14L3 14L3 12ZM10 12L10 14L11 14L11 13L12 13L12 12ZM26 12L26 14L30 14L30 12L29 12L29 13L27 13L27 12ZM38 13L38 14L39 14L39 13ZM33 14L33 16L34 16L34 19L35 19L35 21L36 21L36 18L37 18L37 17L36 17L36 18L35 18L35 16L34 16L34 14ZM14 15L14 16L13 16L13 17L14 17L14 16L15 16L15 15ZM6 16L6 17L7 17L7 16ZM19 17L19 18L18 18L18 19L16 19L16 20L15 20L15 21L13 21L13 23L11 23L11 25L10 25L10 26L8 26L8 27L6 27L6 28L8 28L8 30L9 30L9 29L11 29L11 30L10 30L10 31L11 31L11 32L12 32L12 34L13 34L13 33L14 33L14 31L18 31L18 32L20 32L20 33L21 33L21 34L22 34L22 33L21 33L21 32L22 32L22 29L23 29L23 28L24 28L24 29L25 29L25 28L27 28L27 29L28 29L28 32L29 32L29 30L30 30L30 28L31 28L31 27L29 27L29 26L30 26L30 25L29 25L29 26L27 26L27 27L26 27L26 25L25 25L25 28L24 28L24 25L23 25L23 26L22 26L22 24L25 24L25 23L23 23L23 22L21 22L21 20L22 20L22 21L23 21L23 19L25 19L25 20L26 20L26 18L22 18L22 17L21 17L21 19L20 19L20 17ZM10 18L10 19L9 19L9 20L8 20L8 21L9 21L9 22L7 22L7 21L6 21L6 22L5 22L5 21L4 21L4 22L3 22L3 23L4 23L4 24L5 24L5 25L6 25L6 26L7 26L7 25L6 25L6 24L7 24L7 23L8 23L8 25L9 25L9 24L10 24L10 22L12 22L12 20L13 20L13 19L12 19L12 18ZM19 19L19 20L18 20L18 22L16 22L16 21L15 21L15 22L16 22L16 24L15 24L15 23L13 23L13 25L12 25L12 26L13 26L13 27L10 27L10 28L11 28L11 29L12 29L12 30L11 30L11 31L12 31L12 32L13 32L13 31L14 31L14 30L15 30L15 28L17 28L17 30L19 30L19 29L18 29L18 28L17 28L17 26L18 26L18 24L17 24L17 23L18 23L18 22L19 22L19 20L20 20L20 19ZM37 20L37 21L38 21L38 20ZM4 22L4 23L5 23L5 24L6 24L6 23L7 23L7 22L6 22L6 23L5 23L5 22ZM20 22L20 24L21 24L21 22ZM13 25L13 26L14 26L14 27L13 27L13 28L12 28L12 29L14 29L14 27L16 27L16 26L15 26L15 25ZM19 25L19 28L20 28L20 30L21 30L21 29L22 29L22 27L21 27L21 26L20 26L20 25ZM39 25L39 26L40 26L40 25ZM0 26L0 29L2 29L2 28L1 28L1 26ZM20 27L20 28L21 28L21 27ZM27 27L27 28L29 28L29 27ZM6 29L6 30L5 30L5 31L4 31L4 32L5 32L5 31L6 31L6 32L8 32L8 33L9 33L9 31L6 31L6 30L7 30L7 29ZM0 30L0 31L1 31L1 30ZM39 32L39 33L40 33L40 32ZM33 33L33 36L36 36L36 33ZM37 33L37 35L38 35L38 36L39 36L39 34L38 34L38 33ZM17 34L17 35L18 35L18 34ZM34 34L34 35L35 35L35 34ZM24 36L24 37L25 37L25 38L26 38L26 39L25 39L25 40L26 40L26 39L29 39L29 38L26 38L26 36ZM34 39L34 40L31 40L31 41L34 41L34 40L36 40L36 41L37 41L37 40L38 40L38 39L37 39L37 40L36 40L36 39ZM18 40L18 41L19 41L19 40ZM0 0L0 7L7 7L7 0ZM1 1L1 6L6 6L6 1ZM2 2L2 5L5 5L5 2ZM34 0L34 7L41 7L41 0ZM35 1L35 6L40 6L40 1ZM36 2L36 5L39 5L39 2ZM0 34L0 41L7 41L7 34ZM1 35L1 40L6 40L6 35ZM2 36L2 39L5 39L5 36Z" fill="#000000"/></g></g></svg>
