<?xml version="1.0" encoding="UTF-8"?>
<svg xmlns="http://www.w3.org/2000/svg" version="1.1" width="512" height="512" viewBox="0 0 512 512"><rect x="0" y="0" width="512" height="512" fill="#ffffff"/><g transform="scale(13.838)"><g transform="translate(0,0)"><path fill-rule="evenodd" d="M8 0L8 1L11 1L11 3L10 3L10 2L9 2L9 3L10 3L10 5L9 5L9 6L8 6L8 8L9 8L9 9L7 9L7 8L6 8L6 9L5 9L5 8L3 8L3 11L0 11L0 14L1 14L1 15L3 15L3 14L5 14L5 15L4 15L4 16L1 16L1 17L2 17L2 18L4 18L4 20L6 20L6 21L5 21L5 23L4 23L4 24L5 24L5 25L7 25L7 24L9 24L9 23L8 23L8 21L7 21L7 20L9 20L9 22L11 22L11 23L10 23L10 25L8 25L8 26L10 26L10 27L11 27L11 28L12 28L12 27L13 27L13 26L14 26L14 29L11 29L11 30L10 30L10 29L8 29L8 30L10 30L10 31L12 31L12 33L14 33L14 36L13 36L13 37L15 37L15 36L16 36L16 37L17 37L17 36L18 36L18 35L19 35L19 36L20 36L20 37L21 37L21 35L22 35L22 34L23 34L23 35L24 35L24 33L22 33L22 34L20 34L20 33L18 33L18 32L19 32L19 31L22 31L22 32L26 32L26 36L27 36L27 34L29 34L29 35L30 35L30 34L31 34L31 36L32 36L32 35L34 35L34 36L33 36L33 37L34 37L34 36L36 36L36 37L37 37L37 33L36 33L36 32L37 32L37 30L36 30L36 28L37 28L37 26L36 26L36 25L37 25L37 22L36 22L36 21L37 21L37 18L36 18L36 20L35 20L35 22L36 22L36 23L34 23L34 19L33 19L33 18L34 18L34 17L37 17L37 14L36 14L36 13L37 13L37 12L35 12L35 11L37 11L37 10L36 10L36 9L37 9L37 8L36 8L36 9L35 9L35 10L33 10L33 9L31 9L31 8L30 8L30 9L31 9L31 11L34 11L34 12L33 12L33 13L32 13L32 12L30 12L30 11L29 11L29 10L28 10L28 8L29 8L29 5L28 5L28 8L27 8L27 4L29 4L29 3L28 3L28 2L29 2L29 0L28 0L28 2L27 2L27 1L26 1L26 0L25 0L25 6L24 6L24 4L23 4L23 6L22 6L22 8L23 8L23 11L22 11L22 12L23 12L23 11L24 11L24 10L25 10L25 8L26 8L26 12L27 12L27 13L26 13L26 14L25 14L25 12L24 12L24 13L22 13L22 15L23 15L23 14L25 14L25 15L28 15L28 14L29 14L29 15L30 15L30 16L29 16L29 18L30 18L30 17L31 17L31 18L32 18L32 20L29 20L29 19L28 19L28 16L27 16L27 18L25 18L25 20L24 20L24 18L23 18L23 17L21 17L21 14L19 14L19 12L20 12L20 13L21 13L21 9L19 9L19 10L20 10L20 11L18 11L18 10L17 10L17 12L16 12L16 13L15 13L15 11L16 11L16 9L18 9L18 8L16 8L16 9L15 9L15 11L14 11L14 10L12 10L12 11L14 11L14 16L13 16L13 15L12 15L12 16L11 16L11 14L9 14L9 9L10 9L10 10L11 10L11 9L10 9L10 7L11 7L11 6L12 6L12 9L13 9L13 8L15 8L15 6L14 6L14 5L13 5L13 4L15 4L15 2L13 2L13 1L12 1L12 0ZM14 0L14 1L15 1L15 0ZM16 0L16 5L18 5L18 7L19 7L19 5L20 5L20 7L21 7L21 5L22 5L22 0L21 0L21 1L19 1L19 0ZM17 1L17 3L18 3L18 5L19 5L19 2L18 2L18 1ZM12 2L12 4L13 4L13 2ZM20 4L20 5L21 5L21 4ZM10 5L10 6L9 6L9 7L10 7L10 6L11 6L11 5ZM12 5L12 6L13 6L13 7L14 7L14 6L13 6L13 5ZM16 6L16 7L17 7L17 6ZM23 6L23 7L24 7L24 8L25 8L25 7L26 7L26 6L25 6L25 7L24 7L24 6ZM0 8L0 9L1 9L1 10L2 10L2 8ZM4 9L4 10L5 10L5 9ZM6 9L6 10L7 10L7 9ZM5 11L5 12L7 12L7 13L6 13L6 14L8 14L8 16L7 16L7 15L5 15L5 16L4 16L4 17L5 17L5 16L7 16L7 17L6 17L6 18L8 18L8 17L9 17L9 18L11 18L11 19L10 19L10 21L11 21L11 22L12 22L12 23L13 23L13 25L10 25L10 26L13 26L13 25L15 25L15 24L16 24L16 25L17 25L17 26L16 26L16 28L15 28L15 29L14 29L14 30L12 30L12 31L13 31L13 32L14 32L14 31L15 31L15 32L16 32L16 31L15 31L15 29L17 29L17 30L18 30L18 31L17 31L17 32L18 32L18 31L19 31L19 30L18 30L18 29L19 29L19 26L21 26L21 27L20 27L20 28L21 28L21 29L22 29L22 25L23 25L23 24L24 24L24 23L25 23L25 25L24 25L24 26L23 26L23 27L24 27L24 28L23 28L23 30L24 30L24 31L28 31L28 30L27 30L27 28L29 28L29 27L30 27L30 28L33 28L33 31L34 31L34 32L33 32L33 33L31 33L31 34L33 34L33 33L35 33L35 31L36 31L36 30L34 30L34 28L33 28L33 27L34 27L34 26L35 26L35 25L36 25L36 24L34 24L34 25L33 25L33 22L31 22L31 21L30 21L30 22L31 22L31 23L25 23L25 21L26 21L26 22L27 22L27 21L26 21L26 20L27 20L27 19L26 19L26 20L25 20L25 21L24 21L24 23L23 23L23 22L22 22L22 21L23 21L23 20L22 20L22 19L23 19L23 18L21 18L21 19L20 19L20 20L19 20L19 19L17 19L17 18L18 18L18 17L20 17L20 15L19 15L19 14L17 14L17 16L16 16L16 19L15 19L15 20L16 20L16 23L15 23L15 22L14 22L14 20L13 20L13 19L12 19L12 18L14 18L14 17L15 17L15 16L14 16L14 17L12 17L12 18L11 18L11 16L9 16L9 14L8 14L8 12L7 12L7 11ZM10 11L10 13L11 13L11 11ZM1 12L1 13L3 13L3 12ZM17 12L17 13L18 13L18 12ZM28 12L28 13L29 13L29 14L32 14L32 16L31 16L31 17L32 17L32 18L33 18L33 16L34 16L34 15L35 15L35 16L36 16L36 15L35 15L35 14L32 14L32 13L30 13L30 12ZM34 12L34 13L35 13L35 12ZM12 13L12 14L13 14L13 13ZM17 16L17 17L18 17L18 16ZM24 16L24 17L26 17L26 16ZM0 19L0 20L1 20L1 22L0 22L0 24L2 24L2 25L3 25L3 27L2 27L2 26L1 26L1 25L0 25L0 29L1 29L1 27L2 27L2 28L3 28L3 29L5 29L5 28L6 28L6 29L7 29L7 28L8 28L8 27L7 27L7 26L4 26L4 25L3 25L3 22L4 22L4 21L3 21L3 19L2 19L2 20L1 20L1 19ZM6 19L6 20L7 20L7 19ZM11 19L11 21L12 21L12 22L13 22L13 21L12 21L12 19ZM16 19L16 20L17 20L17 21L18 21L18 20L17 20L17 19ZM28 20L28 22L29 22L29 20ZM2 21L2 22L3 22L3 21ZM6 21L6 22L7 22L7 21ZM19 21L19 22L18 22L18 23L16 23L16 24L19 24L19 25L18 25L18 26L19 26L19 25L20 25L20 24L21 24L21 23L19 23L19 22L20 22L20 21ZM6 23L6 24L7 24L7 23ZM22 23L22 24L23 24L23 23ZM28 24L28 25L26 25L26 27L28 27L28 25L29 25L29 26L30 26L30 27L31 27L31 26L30 26L30 25L31 25L31 24ZM32 25L32 26L33 26L33 25ZM24 26L24 27L25 27L25 26ZM3 27L3 28L4 28L4 27ZM6 27L6 28L7 28L7 27ZM35 27L35 28L36 28L36 27ZM24 28L24 30L26 30L26 28ZM29 29L29 32L32 32L32 29ZM30 30L30 31L31 31L31 30ZM8 32L8 34L9 34L9 35L8 35L8 37L11 37L11 33L10 33L10 34L9 34L9 32ZM16 33L16 36L17 36L17 34L18 34L18 33ZM29 33L29 34L30 34L30 33ZM12 34L12 35L13 35L13 34ZM19 34L19 35L20 35L20 34ZM34 34L34 35L36 35L36 34ZM23 36L23 37L24 37L24 36ZM28 36L28 37L30 37L30 36ZM0 0L0 7L7 7L7 0ZM1 1L1 6L6 6L6 1ZM2 2L2 5L5 5L5 2ZM30 0L30 7L37 7L37 0ZM31 1L31 6L36 6L36 1ZM32 2L32 5L35 5L35 2ZM0 30L0 37L7 37L7 30ZM1 31L1 36L6 36L6 31ZM2 32L2 35L5 35L5 32Z" fill="#000000"/></g></g></svg>
