<?xml version="1.0" encoding="UTF-8"?>
<svg xmlns="http://www.w3.org/2000/svg" version="1.1" width="512" height="512" viewBox="0 0 512 512"><rect x="0" y="0" width="512" height="512" fill="#ffffff"/><g transform="scale(13.838)"><g transform="translate(0,0)"><path fill-rule="evenodd" d="M9 0L9 1L8 1L8 2L9 2L9 3L8 3L8 4L10 4L10 7L11 7L11 4L12 4L12 5L13 5L13 4L14 4L14 7L15 7L15 8L16 8L16 7L17 7L17 6L18 6L18 7L19 7L19 10L20 10L20 8L22 8L22 9L21 9L21 10L25 10L25 9L28 9L28 10L27 10L27 11L26 11L26 12L24 12L24 11L23 11L23 12L22 12L22 11L18 11L18 12L17 12L17 11L16 11L16 10L17 10L17 9L18 9L18 8L17 8L17 9L16 9L16 10L15 10L15 9L14 9L14 8L13 8L13 6L12 6L12 9L14 9L14 11L15 11L15 12L17 12L17 13L16 13L16 14L14 14L14 12L13 12L13 13L12 13L12 11L13 11L13 10L11 10L11 11L9 11L9 10L8 10L8 11L9 11L9 12L6 12L6 11L7 11L7 10L6 10L6 9L11 9L11 8L6 8L6 9L5 9L5 8L0 8L0 13L1 13L1 12L2 12L2 13L3 13L3 14L2 14L2 15L1 15L1 14L0 14L0 16L2 16L2 17L0 17L0 18L2 18L2 21L1 21L1 19L0 19L0 21L1 21L1 22L0 22L0 29L1 29L1 26L2 26L2 27L3 27L3 26L4 26L4 25L5 25L5 26L6 26L6 27L4 27L4 28L6 28L6 29L7 29L7 28L8 28L8 31L9 31L9 29L10 29L10 30L11 30L11 29L12 29L12 30L13 30L13 31L12 31L12 33L13 33L13 32L14 32L14 33L16 33L16 34L15 34L15 35L14 35L14 36L15 36L15 35L16 35L16 36L17 36L17 37L18 37L18 36L17 36L17 35L16 35L16 34L17 34L17 33L18 33L18 35L19 35L19 37L20 37L20 36L22 36L22 37L23 37L23 36L24 36L24 35L22 35L22 33L23 33L23 34L24 34L24 33L23 33L23 32L25 32L25 33L30 33L30 34L31 34L31 37L37 37L37 33L36 33L36 32L37 32L37 30L34 30L34 29L35 29L35 28L34 28L34 29L33 29L33 27L32 27L32 25L33 25L33 26L34 26L34 25L35 25L35 27L36 27L36 28L37 28L37 26L36 26L36 25L37 25L37 22L36 22L36 21L37 21L37 18L36 18L36 17L37 17L37 14L36 14L36 13L37 13L37 12L36 12L36 11L37 11L37 10L36 10L36 8L35 8L35 9L34 9L34 8L33 8L33 12L32 12L32 13L31 13L31 12L27 12L27 11L30 11L30 10L29 10L29 9L30 9L30 8L29 8L29 6L28 6L28 5L26 5L26 3L29 3L29 1L27 1L27 0L26 0L26 1L27 1L27 2L26 2L26 3L25 3L25 6L24 6L24 7L23 7L23 5L22 5L22 4L23 4L23 2L20 2L20 3L19 3L19 5L17 5L17 4L18 4L18 3L17 3L17 4L16 4L16 3L15 3L15 2L17 2L17 1L14 1L14 0L13 0L13 1L11 1L11 2L10 2L10 0ZM18 0L18 2L19 2L19 1L24 1L24 0ZM12 2L12 4L13 4L13 3L14 3L14 4L15 4L15 5L16 5L16 4L15 4L15 3L14 3L14 2ZM10 3L10 4L11 4L11 3ZM20 3L20 4L22 4L22 3ZM8 5L8 7L9 7L9 5ZM19 5L19 7L20 7L20 5ZM15 6L15 7L16 7L16 6ZM21 6L21 7L22 7L22 6ZM25 6L25 7L24 7L24 8L27 8L27 7L28 7L28 6L27 6L27 7L26 7L26 6ZM31 8L31 11L32 11L32 8ZM4 9L4 12L3 12L3 11L2 11L2 10L1 10L1 11L2 11L2 12L3 12L3 13L4 13L4 14L3 14L3 15L4 15L4 16L3 16L3 17L2 17L2 18L3 18L3 20L4 20L4 21L3 21L3 22L2 22L2 23L1 23L1 25L2 25L2 26L3 26L3 25L4 25L4 23L6 23L6 24L5 24L5 25L6 25L6 26L7 26L7 25L8 25L8 24L9 24L9 25L11 25L11 26L16 26L16 25L12 25L12 23L13 23L13 24L15 24L15 23L14 23L14 22L16 22L16 24L18 24L18 25L17 25L17 28L16 28L16 27L12 27L12 29L14 29L14 30L16 30L16 31L17 31L17 32L16 32L16 33L17 33L17 32L18 32L18 33L19 33L19 32L18 32L18 31L21 31L21 30L22 30L22 31L25 31L25 32L28 32L28 29L26 29L26 30L27 30L27 31L25 31L25 30L23 30L23 29L22 29L22 28L23 28L23 27L24 27L24 28L26 28L26 27L24 27L24 26L25 26L25 25L24 25L24 24L23 24L23 23L25 23L25 24L27 24L27 25L26 25L26 26L29 26L29 27L30 27L30 28L32 28L32 27L30 27L30 26L31 26L31 25L30 25L30 24L36 24L36 23L35 23L35 22L34 22L34 21L32 21L32 20L36 20L36 19L34 19L34 17L32 17L32 16L31 16L31 17L30 17L30 15L29 15L29 16L28 16L28 17L24 17L24 18L23 18L23 16L26 16L26 14L28 14L28 13L26 13L26 14L21 14L21 15L20 15L20 14L16 14L16 15L13 15L13 14L12 14L12 13L11 13L11 15L10 15L10 14L8 14L8 13L6 13L6 12L5 12L5 11L6 11L6 10L5 10L5 9ZM35 10L35 11L34 11L34 12L35 12L35 13L36 13L36 12L35 12L35 11L36 11L36 10ZM4 12L4 13L5 13L5 14L6 14L6 15L5 15L5 16L4 16L4 18L6 18L6 19L8 19L8 22L11 22L11 21L12 21L12 22L13 22L13 21L16 21L16 22L17 22L17 23L18 23L18 24L20 24L20 25L18 25L18 26L20 26L20 27L19 27L19 29L18 29L18 28L17 28L17 30L21 30L21 29L20 29L20 28L22 28L22 27L21 27L21 26L24 26L24 25L23 25L23 24L22 24L22 23L21 23L21 22L22 22L22 21L23 21L23 22L24 22L24 21L25 21L25 23L26 23L26 22L27 22L27 24L30 24L30 23L31 23L31 22L32 22L32 23L34 23L34 22L32 22L32 21L31 21L31 20L32 20L32 17L31 17L31 20L29 20L29 19L30 19L30 18L29 18L29 17L28 17L28 18L27 18L27 19L26 19L26 20L24 20L24 19L23 19L23 18L22 18L22 19L20 19L20 20L19 20L19 22L17 22L17 21L18 21L18 20L17 20L17 18L18 18L18 19L19 19L19 18L21 18L21 17L16 17L16 16L13 16L13 15L12 15L12 17L14 17L14 18L15 18L15 20L13 20L13 21L12 21L12 19L13 19L13 18L11 18L11 21L9 21L9 20L10 20L10 17L11 17L11 16L10 16L10 17L9 17L9 15L8 15L8 14L6 14L6 13L5 13L5 12ZM9 12L9 13L10 13L10 12ZM20 12L20 13L22 13L22 12ZM29 13L29 14L31 14L31 15L34 15L34 16L35 16L35 17L36 17L36 15L34 15L34 13L32 13L32 14L31 14L31 13ZM6 15L6 16L5 16L5 17L6 17L6 18L8 18L8 19L9 19L9 17L8 17L8 15ZM21 15L21 16L23 16L23 15ZM6 16L6 17L7 17L7 16ZM15 17L15 18L16 18L16 17ZM27 19L27 20L28 20L28 19ZM5 20L5 21L7 21L7 20ZM20 20L20 21L22 21L22 20ZM27 21L27 22L28 22L28 21ZM30 21L30 22L29 22L29 23L30 23L30 22L31 22L31 21ZM3 22L3 23L2 23L2 25L3 25L3 23L4 23L4 22ZM6 22L6 23L7 23L7 24L6 24L6 25L7 25L7 24L8 24L8 23L7 23L7 22ZM19 22L19 23L20 23L20 22ZM21 24L21 25L22 25L22 24ZM29 25L29 26L30 26L30 25ZM9 26L9 27L8 27L8 28L9 28L9 27L10 27L10 28L11 28L11 27L10 27L10 26ZM6 27L6 28L7 28L7 27ZM2 28L2 29L3 29L3 28ZM29 29L29 32L32 32L32 29ZM30 30L30 31L31 31L31 30ZM33 30L33 34L32 34L32 33L31 33L31 34L32 34L32 36L33 36L33 34L34 34L34 36L36 36L36 35L35 35L35 33L34 33L34 32L35 32L35 31L34 31L34 30ZM10 31L10 32L11 32L11 31ZM14 31L14 32L15 32L15 31ZM8 32L8 37L9 37L9 34L10 34L10 36L11 36L11 37L12 37L12 35L13 35L13 34L10 34L10 33L9 33L9 32ZM20 32L20 33L22 33L22 32ZM19 34L19 35L21 35L21 34ZM26 35L26 36L25 36L25 37L27 37L27 36L30 36L30 35ZM0 0L0 7L7 7L7 0ZM1 1L1 6L6 6L6 1ZM2 2L2 5L5 5L5 2ZM30 0L30 7L37 7L37 0ZM31 1L31 6L36 6L36 1ZM32 2L32 5L35 5L35 2ZM0 30L0 37L7 37L7 30ZM1 31L1 36L6 36L6 31ZM2 32L2 35L5 35L5 32Z" fill="#000000"/></g></g></svg>
