<?xml version="1.0" encoding="UTF-8"?>
<svg xmlns="http://www.w3.org/2000/svg" version="1.1" width="512" height="512" viewBox="0 0 512 512"><rect x="0" y="0" width="512" height="512" fill="#ffffff"/><g transform="scale(15.515)"><g transform="translate(0,0)"><path fill-rule="evenodd" d="M9 0L9 1L8 1L8 2L9 2L9 3L8 3L8 4L10 4L10 7L11 7L11 4L12 4L12 5L13 5L13 6L12 6L12 9L13 9L13 8L14 8L14 9L17 9L17 10L15 10L15 11L14 11L14 12L15 12L15 11L16 11L16 12L17 12L17 14L15 14L15 13L12 13L12 11L13 11L13 10L11 10L11 11L10 11L10 9L11 9L11 8L6 8L6 9L8 9L8 12L6 12L6 11L7 11L7 10L4 10L4 11L3 11L3 10L2 10L2 9L5 9L5 8L0 8L0 10L2 10L2 11L1 11L1 12L2 12L2 13L3 13L3 14L2 14L2 15L0 15L0 17L1 17L1 19L4 19L4 18L5 18L5 17L7 17L7 18L6 18L6 19L5 19L5 20L1 20L1 21L0 21L0 25L1 25L1 21L3 21L3 22L2 22L2 24L3 24L3 25L4 25L4 24L5 24L5 25L8 25L8 27L9 27L9 28L8 28L8 33L9 33L9 32L10 32L10 33L11 33L11 32L10 32L10 31L9 31L9 30L11 30L11 29L12 29L12 30L13 30L13 31L12 31L12 33L13 33L13 32L14 32L14 33L15 33L15 32L17 32L17 33L18 33L18 32L19 32L19 33L20 33L20 32L22 32L22 33L23 33L23 31L24 31L24 30L23 30L23 31L22 31L22 29L23 29L23 28L24 28L24 29L25 29L25 30L26 30L26 31L25 31L25 32L24 32L24 33L25 33L25 32L26 32L26 31L27 31L27 30L26 30L26 29L28 29L28 30L29 30L29 31L28 31L28 32L27 32L27 33L28 33L28 32L29 32L29 33L30 33L30 32L31 32L31 33L32 33L32 32L31 32L31 30L33 30L33 27L32 27L32 26L33 26L33 24L32 24L32 26L30 26L30 25L29 25L29 24L31 24L31 23L32 23L32 22L33 22L33 21L32 21L32 20L31 20L31 19L32 19L32 18L33 18L33 17L32 17L32 16L31 16L31 15L32 15L32 14L33 14L33 13L31 13L31 15L30 15L30 16L31 16L31 19L30 19L30 17L29 17L29 15L27 15L27 13L26 13L26 10L27 10L27 12L28 12L28 13L30 13L30 12L31 12L31 11L32 11L32 10L33 10L33 9L32 9L32 8L31 8L31 9L30 9L30 8L29 8L29 9L30 9L30 10L27 10L27 9L28 9L28 8L27 8L27 9L26 9L26 8L25 8L25 9L26 9L26 10L25 10L25 12L24 12L24 13L23 13L23 11L21 11L21 10L24 10L24 9L23 9L23 5L25 5L25 3L23 3L23 1L24 1L24 0L21 0L21 1L20 1L20 0L15 0L15 1L17 1L17 2L16 2L16 3L17 3L17 4L18 4L18 5L16 5L16 4L12 4L12 2L13 2L13 1L11 1L11 2L10 2L10 0ZM18 1L18 2L17 2L17 3L18 3L18 4L20 4L20 3L21 3L21 4L22 4L22 5L23 5L23 4L22 4L22 3L21 3L21 2L22 2L22 1L21 1L21 2L20 2L20 1ZM14 2L14 3L15 3L15 2ZM18 2L18 3L20 3L20 2ZM10 3L10 4L11 4L11 3ZM8 5L8 7L9 7L9 5ZM19 5L19 7L18 7L18 6L17 6L17 8L18 8L18 9L20 9L20 8L19 8L19 7L20 7L20 5ZM13 6L13 7L14 7L14 8L15 8L15 7L16 7L16 6L15 6L15 7L14 7L14 6ZM21 6L21 7L22 7L22 6ZM24 6L24 7L25 7L25 6ZM21 8L21 9L22 9L22 8ZM18 10L18 11L17 11L17 12L18 12L18 13L22 13L22 12L21 12L21 11L20 11L20 10ZM30 10L30 11L28 11L28 12L30 12L30 11L31 11L31 10ZM2 11L2 12L3 12L3 13L5 13L5 14L4 14L4 15L2 15L2 16L1 16L1 17L3 17L3 16L5 16L5 14L8 14L8 13L9 13L9 15L6 15L6 16L10 16L10 17L8 17L8 18L13 18L13 19L12 19L12 21L9 21L9 20L11 20L11 19L9 19L9 20L8 20L8 19L6 19L6 20L5 20L5 21L4 21L4 22L7 22L7 23L6 23L6 24L8 24L8 25L9 25L9 24L10 24L10 28L11 28L11 26L13 26L13 27L12 27L12 29L15 29L15 30L16 30L16 31L17 31L17 32L18 32L18 30L19 30L19 32L20 32L20 30L19 30L19 29L22 29L22 28L23 28L23 27L22 27L22 26L23 26L23 25L24 25L24 24L21 24L21 22L18 22L18 23L16 23L16 25L14 25L14 24L15 24L15 23L14 23L14 24L13 24L13 25L12 25L12 23L13 23L13 22L12 22L12 21L15 21L15 22L16 22L16 21L17 21L17 20L19 20L19 19L20 19L20 18L18 18L18 19L17 19L17 18L16 18L16 17L14 17L14 16L19 16L19 15L21 15L21 14L17 14L17 15L14 15L14 16L13 16L13 17L12 17L12 15L13 15L13 14L12 14L12 13L11 13L11 12L10 12L10 13L9 13L9 12L8 12L8 13L5 13L5 11L4 11L4 12L3 12L3 11ZM10 13L10 14L11 14L11 13ZM24 13L24 14L23 14L23 15L22 15L22 16L20 16L20 17L21 17L21 18L23 18L23 19L26 19L26 21L25 21L25 20L20 20L20 21L25 21L25 22L22 22L22 23L25 23L25 24L26 24L26 23L25 23L25 22L26 22L26 21L27 21L27 20L28 20L28 19L29 19L29 21L28 21L28 23L27 23L27 24L29 24L29 21L30 21L30 23L31 23L31 20L30 20L30 19L29 19L29 17L27 17L27 15L24 15L24 14L26 14L26 13ZM23 15L23 18L25 18L25 17L26 17L26 18L27 18L27 17L26 17L26 16L24 16L24 15ZM15 18L15 19L14 19L14 20L15 20L15 21L16 21L16 20L17 20L17 19L16 19L16 18ZM6 20L6 21L7 21L7 22L8 22L8 24L9 24L9 23L11 23L11 22L8 22L8 20ZM19 23L19 26L20 26L20 27L21 27L21 28L22 28L22 27L21 27L21 24L20 24L20 23ZM16 25L16 26L15 26L15 27L14 27L14 28L15 28L15 27L16 27L16 28L17 28L17 29L16 29L16 30L17 30L17 29L18 29L18 28L17 28L17 25ZM25 25L25 28L28 28L28 25ZM26 26L26 27L27 27L27 26ZM29 26L29 27L30 27L30 26ZM31 27L31 28L29 28L29 30L30 30L30 29L32 29L32 27ZM14 31L14 32L15 32L15 31ZM0 0L0 7L7 7L7 0ZM1 1L1 6L6 6L6 1ZM2 2L2 5L5 5L5 2ZM26 0L26 7L33 7L33 0ZM27 1L27 6L32 6L32 1ZM28 2L28 5L31 5L31 2ZM0 26L0 33L7 33L7 26ZM1 27L1 32L6 32L6 27ZM2 28L2 31L5 31L5 28Z" fill="#000000"/></g></g></svg>
