<?xml version="1.0" encoding="UTF-8"?>
<svg xmlns="http://www.w3.org/2000/svg" version="1.1" width="512" height="512" viewBox="0 0 512 512"><rect x="0" y="0" width="512" height="512" fill="#ffffff"/><g transform="scale(13.838)"><g transform="translate(0,0)"><path fill-rule="evenodd" d="M8 0L8 1L9 1L9 2L8 2L8 5L9 5L9 4L11 4L11 5L10 5L10 9L9 9L9 8L8 8L8 9L7 9L7 8L6 8L6 9L5 9L5 10L4 10L4 8L0 8L0 10L1 10L1 11L0 11L0 12L1 12L1 14L0 14L0 18L1 18L1 19L0 19L0 20L2 20L2 19L3 19L3 18L1 18L1 17L3 17L3 14L2 14L2 13L3 13L3 12L4 12L4 17L5 17L5 18L6 18L6 19L5 19L5 20L3 20L3 21L2 21L2 22L1 22L1 21L0 21L0 24L1 24L1 23L2 23L2 22L3 22L3 24L2 24L2 25L3 25L3 24L4 24L4 23L5 23L5 22L3 22L3 21L7 21L7 22L6 22L6 23L7 23L7 24L5 24L5 26L6 26L6 27L7 27L7 28L4 28L4 27L3 27L3 26L1 26L1 27L0 27L0 28L1 28L1 27L3 27L3 29L7 29L7 28L9 28L9 29L8 29L8 30L9 30L9 31L10 31L10 32L9 32L9 33L8 33L8 37L9 37L9 35L14 35L14 34L15 34L15 33L14 33L14 32L13 32L13 30L14 30L14 29L12 29L12 28L14 28L14 27L15 27L15 26L18 26L18 27L19 27L19 28L18 28L18 29L16 29L16 28L17 28L17 27L16 27L16 28L15 28L15 31L16 31L16 34L17 34L17 35L18 35L18 36L17 36L17 37L18 37L18 36L19 36L19 37L20 37L20 36L21 36L21 34L22 34L22 32L23 32L23 31L22 31L22 30L24 30L24 29L23 29L23 28L24 28L24 27L23 27L23 24L24 24L24 26L26 26L26 28L25 28L25 29L26 29L26 28L28 28L28 29L27 29L27 30L25 30L25 31L26 31L26 33L27 33L27 32L28 32L28 33L30 33L30 34L29 34L29 36L31 36L31 37L37 37L37 36L35 36L35 35L34 35L34 36L31 36L31 35L33 35L33 33L34 33L34 31L35 31L35 34L37 34L37 32L36 32L36 31L37 31L37 27L36 27L36 26L37 26L37 24L35 24L35 23L33 23L33 24L32 24L32 23L30 23L30 20L31 20L31 22L32 22L32 21L33 21L33 20L34 20L34 19L35 19L35 21L34 21L34 22L36 22L36 19L37 19L37 17L36 17L36 16L37 16L37 15L36 15L36 14L37 14L37 11L36 11L36 9L37 9L37 8L36 8L36 9L35 9L35 8L32 8L32 9L31 9L31 10L30 10L30 12L29 12L29 9L30 9L30 8L29 8L29 5L28 5L28 4L26 4L26 3L27 3L27 0L26 0L26 2L25 2L25 1L24 1L24 0L18 0L18 1L16 1L16 2L14 2L14 0L12 0L12 1L11 1L11 0L10 0L10 1L9 1L9 0ZM18 1L18 2L17 2L17 3L16 3L16 4L17 4L17 3L18 3L18 4L19 4L19 3L18 3L18 2L20 2L20 1ZM22 1L22 2L21 2L21 3L20 3L20 5L21 5L21 7L20 7L20 6L19 6L19 5L18 5L18 6L17 6L17 5L15 5L15 3L14 3L14 4L13 4L13 5L12 5L12 6L11 6L11 8L12 8L12 6L13 6L13 9L14 9L14 12L15 12L15 13L13 13L13 14L12 14L12 16L9 16L9 15L8 15L8 14L10 14L10 15L11 15L11 13L12 13L12 12L13 12L13 11L11 11L11 10L12 10L12 9L11 9L11 10L10 10L10 11L11 11L11 13L8 13L8 12L7 12L7 11L5 11L5 12L7 12L7 13L6 13L6 14L7 14L7 15L5 15L5 17L6 17L6 18L8 18L8 17L6 17L6 16L7 16L7 15L8 15L8 16L9 16L9 17L10 17L10 18L9 18L9 19L6 19L6 20L9 20L9 19L10 19L10 21L11 21L11 23L13 23L13 22L14 22L14 24L12 24L12 26L11 26L11 28L12 28L12 26L13 26L13 27L14 27L14 26L13 26L13 25L15 25L15 24L16 24L16 23L17 23L17 24L18 24L18 26L19 26L19 25L20 25L20 26L22 26L22 23L23 23L23 20L24 20L24 22L25 22L25 21L26 21L26 20L27 20L27 23L26 23L26 24L27 24L27 25L28 25L28 26L27 26L27 27L30 27L30 28L32 28L32 27L33 27L33 28L36 28L36 27L33 27L33 26L36 26L36 25L33 25L33 26L30 26L30 24L29 24L29 23L28 23L28 21L29 21L29 20L27 20L27 17L28 17L28 18L30 18L30 19L31 19L31 18L32 18L32 19L34 19L34 18L35 18L35 17L34 17L34 16L36 16L36 15L35 15L35 14L36 14L36 12L35 12L35 14L34 14L34 16L30 16L30 15L31 15L31 14L30 14L30 15L29 15L29 14L27 14L27 15L29 15L29 16L26 16L26 15L24 15L24 14L25 14L25 13L23 13L23 16L22 16L22 17L25 17L25 16L26 16L26 18L23 18L23 20L22 20L22 18L20 18L20 16L21 16L21 15L18 15L18 14L19 14L19 13L17 13L17 12L20 12L20 14L22 14L22 11L23 11L23 10L22 10L22 11L21 11L21 12L20 12L20 10L21 10L21 8L22 8L22 9L23 9L23 8L24 8L24 9L25 9L25 11L26 11L26 10L27 10L27 11L28 11L28 9L29 9L29 8L28 8L28 5L27 5L27 9L26 9L26 5L25 5L25 8L24 8L24 5L23 5L23 4L25 4L25 3L24 3L24 2L23 2L23 1ZM28 1L28 2L29 2L29 1ZM11 2L11 4L12 4L12 3L13 3L13 2ZM22 3L22 4L23 4L23 3ZM14 5L14 8L15 8L15 9L16 9L16 10L17 10L17 11L19 11L19 10L20 10L20 9L19 9L19 8L20 8L20 7L19 7L19 6L18 6L18 7L17 7L17 6L16 6L16 7L17 7L17 8L15 8L15 5ZM8 6L8 7L9 7L9 6ZM22 6L22 8L23 8L23 6ZM6 9L6 10L7 10L7 9ZM8 9L8 11L9 11L9 9ZM17 9L17 10L19 10L19 9ZM32 9L32 10L33 10L33 11L32 11L32 12L31 12L31 13L32 13L32 12L34 12L34 10L33 10L33 9ZM3 10L3 11L1 11L1 12L3 12L3 11L4 11L4 10ZM7 13L7 14L8 14L8 13ZM15 13L15 14L16 14L16 15L17 15L17 13ZM1 14L1 15L2 15L2 14ZM13 14L13 15L14 15L14 14ZM32 14L32 15L33 15L33 14ZM12 16L12 17L13 17L13 18L14 18L14 21L15 21L15 19L16 19L16 20L17 20L17 21L16 21L16 22L17 22L17 21L19 21L19 22L21 22L21 23L20 23L20 25L21 25L21 23L22 23L22 20L21 20L21 21L19 21L19 18L18 18L18 17L19 17L19 16L17 16L17 18L16 18L16 17L15 17L15 18L14 18L14 16ZM29 16L29 17L30 17L30 18L31 18L31 17L30 17L30 16ZM33 17L33 18L34 18L34 17ZM10 18L10 19L11 19L11 20L12 20L12 19L11 19L11 18ZM17 18L17 19L18 19L18 18ZM24 19L24 20L25 20L25 19ZM8 21L8 22L7 22L7 23L8 23L8 22L9 22L9 21ZM9 23L9 24L7 24L7 25L6 25L6 26L7 26L7 25L8 25L8 26L9 26L9 28L10 28L10 23ZM24 23L24 24L25 24L25 23ZM22 27L22 28L23 28L23 27ZM9 29L9 30L12 30L12 29ZM18 29L18 30L16 30L16 31L18 31L18 32L19 32L19 33L21 33L21 32L22 32L22 31L21 31L21 30L20 30L20 29ZM29 29L29 32L32 32L32 29ZM33 29L33 31L34 31L34 29ZM35 29L35 30L36 30L36 29ZM27 30L27 31L28 31L28 30ZM30 30L30 31L31 31L31 30ZM11 31L11 32L10 32L10 33L9 33L9 34L10 34L10 33L11 33L11 34L12 34L12 33L11 33L11 32L12 32L12 31ZM19 31L19 32L20 32L20 31ZM24 32L24 33L23 33L23 36L22 36L22 37L23 37L23 36L25 36L25 37L27 37L27 35L28 35L28 34L26 34L26 35L25 35L25 34L24 34L24 33L25 33L25 32ZM17 33L17 34L18 34L18 35L19 35L19 36L20 36L20 34L18 34L18 33ZM31 33L31 34L32 34L32 33ZM15 35L15 36L14 36L14 37L15 37L15 36L16 36L16 35ZM10 36L10 37L11 37L11 36ZM12 36L12 37L13 37L13 36ZM0 0L0 7L7 7L7 0ZM1 1L1 6L6 6L6 1ZM2 2L2 5L5 5L5 2ZM30 0L30 7L37 7L37 0ZM31 1L31 6L36 6L36 1ZM32 2L32 5L35 5L35 2ZM0 30L0 37L7 37L7 30ZM1 31L1 36L6 36L6 31ZM2 32L2 35L5 35L5 32Z" fill="#000000"/></g></g></svg>
