<?xml version="1.0" standalone="no"?>
<!DOCTYPE svg PUBLIC "-//W3C//DTD SVG 20010904//EN"
 "http://www.w3.org/TR/2001/REC-SVG-20010904/DTD/svg10.dtd">
<svg version="1.0" xmlns="http://www.w3.org/2000/svg"
 width="125.000000pt" height="80.000000pt" viewBox="0 0 125.000000 80.000000"
 preserveAspectRatio="xMidYMid meet">
<metadata>
Created by potrace 1.16, written by Peter Selinger 2001-2019
</metadata>
<g transform="translate(0.000000,80.000000) scale(0.100000,-0.100000)"
fill="#000000" stroke="none">
<path d="M515 722 c-52 -8 -65 -13 -65 -27 0 -15 49 -45 75 -45 36 0 8 -28
-38 -37 -63 -12 -76 -49 -21 -59 50 -9 263 1 297 15 49 19 40 31 -76 103 -65
39 -127 58 -172 50z"/>
<path d="M791 531 c-19 -35 -73 -59 -161 -70 -187 -25 -234 -34 -302 -57 -38
-13 -84 -33 -103 -44 -59 -36 -113 -104 -130 -164 -20 -67 -17 -90 11 -94 18
-2 23 4 28 32 8 44 93 124 170 160 29 14 111 37 182 50 246 48 270 55 308 89
29 26 37 40 39 72 1 30 -2 40 -15 43 -9 2 -21 -6 -27 -17z"/>
</g>
</svg>
